<?xml version="1.0" encoding="UTF-8"?>
<svg id="Laag_2" data-name="Laag 2" xmlns="http://www.w3.org/2000/svg" viewBox="0 0 247.08 110.23">
  <defs>
    <style>
      .cls-1 {
        fill: #1d1d1b;
      }
    </style>
  </defs>
  <g id="Laag_1-2" data-name="Laag 1">
    <g>
      <path class="cls-1" d="M0,110.04v-20.94h8.24c2.1,0,3.88.38,5.36,1.13,1.47.75,2.6,1.9,3.4,3.43s1.19,3.5,1.19,5.91-.4,4.34-1.19,5.89c-.79,1.55-1.93,2.69-3.4,3.45-1.47.75-3.26,1.13-5.36,1.13H0ZM4.39,106.29h3.83c.88,0,1.67-.13,2.35-.4.69-.26,1.26-.66,1.71-1.17.45-.52.79-1.17,1.03-1.95.24-.78.35-1.69.35-2.73v-.91c0-1.04-.12-1.95-.35-2.73-.24-.78-.58-1.43-1.03-1.95-.45-.52-1.02-.91-1.71-1.19-.69-.27-1.47-.41-2.35-.41h-3.83v13.46Z"/>
      <path class="cls-1" d="M19.22,110.04l7.77-20.94h5.42l7.77,20.94h-4.74l-1.44-4.12h-8.8l-1.44,4.12h-4.53ZM26.46,102.26h6.27l-1.8-5.16c-.08-.22-.17-.49-.28-.81-.11-.32-.22-.67-.34-1.05-.12-.39-.23-.77-.34-1.15-.11-.38-.21-.72-.31-1.02h-.18c-.1.39-.23.84-.38,1.36-.16.52-.31,1.02-.47,1.5s-.28.87-.38,1.17l-1.79,5.16Z"/>
      <path class="cls-1" d="M42.59,110.04v-20.94h11.07c1.49,0,2.73.27,3.72.82.99.55,1.73,1.32,2.22,2.3.49.99.74,2.12.74,3.4,0,1.36-.29,2.57-.88,3.62s-1.44,1.85-2.56,2.4l4.12,8.39h-4.86l-3.56-7.63h-5.62v7.63h-4.39ZM46.97,98.81h6.09c.88,0,1.57-.28,2.06-.84.49-.56.74-1.32.74-2.27,0-.61-.11-1.13-.32-1.57-.22-.44-.53-.77-.94-.99-.41-.22-.92-.34-1.53-.34h-6.09v6.01Z"/>
      <path class="cls-1" d="M67.14,110.04l-5.3-20.94h4.65l2.94,12.48c.06.18.12.45.18.81s.12.73.18,1.11c.06.39.11.73.15,1.04h.15c.04-.22.07-.48.1-.76.03-.29.07-.56.12-.84.05-.27.1-.53.15-.78.05-.24.08-.44.1-.58l2.74-12.48h5.24l2.8,12.48c.06.2.12.48.18.82.06.35.12.71.18,1.1.06.39.11.73.15,1.04h.15c.04-.22.08-.47.13-.73.05-.26.1-.53.15-.81.05-.27.1-.53.16-.78.06-.24.11-.46.15-.64l2.91-12.48h4.21l-5.33,20.94h-5l-2.97-12.88c-.06-.29-.12-.62-.19-.99-.07-.38-.13-.75-.19-1.11-.06-.37-.11-.69-.15-.98h-.12c-.04.28-.08.62-.13,1.01-.05.39-.11.76-.18,1.13-.07.37-.13.68-.19.95l-2.94,12.88h-5.15Z"/>
      <path class="cls-1" d="M92.18,110.04v-20.94h4.39v20.94h-4.39Z"/>
      <path class="cls-1" d="M101.04,110.04v-20.94h4.03l8.12,11.29c.12.14.26.34.44.59.18.26.34.5.5.75.16.24.26.44.32.58h.15v-13.22h4.15v20.94h-4.03l-8.3-11.57c-.2-.28-.4-.6-.62-.95-.22-.35-.37-.61-.47-.79h-.15v13.31h-4.15Z"/>
    </g>
    <g>
      <path class="cls-1" d="M128.31,109.87v-20.59h8.74c2.23,0,4.12.37,5.68,1.11,1.56.74,2.76,1.87,3.6,3.38s1.26,3.45,1.26,5.81-.42,4.27-1.26,5.79c-.84,1.52-2.04,2.65-3.6,3.39-1.56.74-3.45,1.11-5.68,1.11h-8.74ZM132.96,106.17h4.06c.94,0,1.77-.13,2.5-.39.73-.26,1.33-.64,1.81-1.16.48-.51.84-1.15,1.09-1.92.25-.77.37-1.67.37-2.69v-.9c0-1.02-.12-1.92-.37-2.69-.25-.77-.61-1.41-1.09-1.92-.48-.51-1.08-.9-1.81-1.17-.73-.27-1.56-.4-2.5-.4h-4.06v13.23Z"/>
      <path class="cls-1" d="M151.37,109.87v-20.59h17.1v3.66h-12.42v4.59h10.98v3.63h-10.98v5.01h12.61v3.69h-17.29Z"/>
      <path class="cls-1" d="M181.02,110.23c-1.25,0-2.43-.12-3.56-.36s-2.12-.62-2.98-1.16c-.86-.53-1.54-1.2-2.03-2.01-.49-.81-.73-1.8-.73-2.96v-.31c0-.11.01-.2.03-.26h4.62c-.02.06-.03.14-.03.24v.27c0,.64.18,1.18.55,1.62s.9.77,1.61.99,1.53.33,2.47.33c.6,0,1.14-.04,1.61-.1.47-.07.88-.17,1.25-.3.36-.13.67-.29.91-.46.24-.18.42-.39.53-.63.11-.24.17-.51.17-.81,0-.54-.18-.98-.55-1.32-.36-.34-.86-.63-1.5-.87-.64-.24-1.35-.46-2.14-.66-.79-.2-1.6-.4-2.43-.62-.83-.21-1.64-.47-2.43-.78-.79-.31-1.5-.69-2.12-1.13s-1.12-1-1.5-1.68c-.37-.68-.56-1.5-.56-2.46,0-1.02.22-1.9.67-2.64s1.08-1.35,1.89-1.83c.81-.48,1.75-.83,2.81-1.07,1.06-.23,2.21-.34,3.46-.34,1.16,0,2.27.11,3.31.34,1.04.23,1.96.6,2.75,1.1.79.5,1.41,1.13,1.86,1.89.45.76.67,1.66.67,2.7v.36h-4.53v-.24c0-.54-.17-1-.5-1.38-.33-.38-.8-.68-1.4-.9-.6-.22-1.31-.33-2.12-.33-.87,0-1.62.08-2.23.24-.61.16-1.08.39-1.4.7-.32.31-.48.68-.48,1.1,0,.48.18.87.55,1.18s.86.58,1.5.81c.63.23,1.35.43,2.14.62.79.18,1.6.38,2.43.6.83.22,1.64.48,2.43.78.79.3,1.5.68,2.12,1.13s1.12,1.01,1.5,1.67.56,1.45.56,2.37c0,1.58-.4,2.85-1.19,3.81-.79.96-1.87,1.66-3.24,2.1-1.37.44-2.94.66-4.71.66Z"/>
      <path class="cls-1" d="M193.87,109.87v-20.59h4.65v20.59h-4.65Z"/>
      <path class="cls-1" d="M213,110.23c-3.37,0-5.97-.86-7.79-2.59s-2.73-4.42-2.73-8.06c0-2.42.44-4.42,1.31-5.99.87-1.57,2.14-2.74,3.81-3.51,1.66-.77,3.66-1.16,5.99-1.16,1.39,0,2.7.15,3.93.45,1.23.3,2.31.76,3.26,1.38.95.62,1.69,1.39,2.22,2.32.53.93.8,2.04.8,3.32h-4.71c0-.62-.14-1.17-.42-1.65-.28-.48-.67-.88-1.17-1.2-.5-.32-1.07-.56-1.72-.72s-1.32-.24-2.03-.24c-1.08,0-2.03.14-2.84.41-.81.27-1.48.68-2.01,1.23-.53.55-.93,1.24-1.2,2.05-.27.82-.41,1.77-.41,2.85v.9c0,1.5.23,2.73.69,3.69.46.96,1.14,1.68,2.06,2.15.91.47,2.05.7,3.4.7,1.12,0,2.12-.17,2.98-.5.86-.33,1.54-.81,2.03-1.43.49-.62.73-1.38.73-2.28v-.21h-6.4v-3.42h11.02v11.13h-3.06l-.41-2.22c-.62.58-1.3,1.06-2.01,1.44-.72.38-1.51.67-2.39.86-.87.19-1.85.28-2.93.28Z"/>
      <path class="cls-1" d="M228.29,109.87v-20.59h4.28l8.61,11.1c.13.14.28.33.47.58.19.25.36.5.53.74.17.24.28.43.34.57h.16v-13h4.4v20.59h-4.28l-8.8-11.37c-.21-.28-.43-.59-.66-.93-.23-.34-.4-.6-.5-.78h-.16v13.09h-4.4Z"/>
    </g>
    <g>
      <path class="cls-1" d="M59.38,21.82C26.59,21.82,0,48.41,0,81.2h39.83c.26-10.85,8.9-19.57,19.55-19.57s19.29,8.72,19.55,19.57h39.83c0-32.79-26.59-59.38-59.38-59.38Z"/>
      <path class="cls-1" d="M78.95,0v22.23c.39.14.77.29,1.16.43,18.45,6.53,32.89,21.53,38.65,40.33V0h-39.81Z"/>
    </g>
    <g>
      <path class="cls-1" d="M187.7,21.82c-32.79,0-59.38,26.59-59.38,59.38h39.83c.26-10.85,8.9-19.57,19.55-19.57s19.29,8.72,19.55,19.57h39.83c0-32.79-26.59-59.38-59.38-59.38Z"/>
      <path class="cls-1" d="M207.27,0v22.23c.39.14.77.29,1.16.43,18.45,6.53,32.89,21.53,38.65,40.33V0h-39.81Z"/>
    </g>
  </g>
</svg>